<mxfile host="app.diagrams.net" agent="Mozilla/5.0 (Windows NT 10.0; Win64; x64) AppleWebKit/537.36 (KHTML, like Gecko) Chrome/130.0.0.0 Safari/537.36 Edg/130.0.0.0" version="24.8.0">
  <diagram name="Página-1" id="jKzU2qFJgsKS6pD1pg8x">
    <mxGraphModel dx="1042" dy="615" grid="1" gridSize="10" guides="1" tooltips="1" connect="1" arrows="1" fold="1" page="1" pageScale="1" pageWidth="827" pageHeight="1169" background="none" math="0" shadow="0">
      <root>
        <mxCell id="0" />
        <mxCell id="1" parent="0" />
        <mxCell id="AVF1j_iNjwQPH2Job04u-1" value="Consultoría IT" style="shape=umlFrame;whiteSpace=wrap;html=1;pointerEvents=0;" parent="1" vertex="1">
          <mxGeometry x="160" y="410" width="510" height="300" as="geometry" />
        </mxCell>
        <mxCell id="lFAUGsljtXtqzFOSI4cs-7" style="edgeStyle=orthogonalEdgeStyle;rounded=0;orthogonalLoop=1;jettySize=auto;html=1;exitX=0.5;exitY=0.5;exitDx=0;exitDy=0;exitPerimeter=0;entryX=1;entryY=0.5;entryDx=0;entryDy=0;" parent="1" source="AVF1j_iNjwQPH2Job04u-2" target="AVF1j_iNjwQPH2Job04u-13" edge="1">
          <mxGeometry relative="1" as="geometry" />
        </mxCell>
        <mxCell id="lFAUGsljtXtqzFOSI4cs-8" style="edgeStyle=orthogonalEdgeStyle;rounded=0;orthogonalLoop=1;jettySize=auto;html=1;exitX=0.5;exitY=0.5;exitDx=0;exitDy=0;exitPerimeter=0;entryX=0;entryY=0.5;entryDx=0;entryDy=0;" parent="1" source="AVF1j_iNjwQPH2Job04u-2" target="AVF1j_iNjwQPH2Job04u-9" edge="1">
          <mxGeometry relative="1" as="geometry" />
        </mxCell>
        <mxCell id="lFAUGsljtXtqzFOSI4cs-10" style="edgeStyle=orthogonalEdgeStyle;rounded=0;orthogonalLoop=1;jettySize=auto;html=1;exitX=0.5;exitY=0.5;exitDx=0;exitDy=0;exitPerimeter=0;entryX=0;entryY=0.5;entryDx=0;entryDy=0;" parent="1" source="AVF1j_iNjwQPH2Job04u-2" target="AVF1j_iNjwQPH2Job04u-11" edge="1">
          <mxGeometry relative="1" as="geometry" />
        </mxCell>
        <mxCell id="lFAUGsljtXtqzFOSI4cs-11" style="edgeStyle=orthogonalEdgeStyle;rounded=0;orthogonalLoop=1;jettySize=auto;html=1;exitX=0.5;exitY=0.5;exitDx=0;exitDy=0;exitPerimeter=0;entryX=0;entryY=0.5;entryDx=0;entryDy=0;" parent="1" source="AVF1j_iNjwQPH2Job04u-2" target="AVF1j_iNjwQPH2Job04u-10" edge="1">
          <mxGeometry relative="1" as="geometry" />
        </mxCell>
        <mxCell id="lFAUGsljtXtqzFOSI4cs-12" style="edgeStyle=orthogonalEdgeStyle;rounded=0;orthogonalLoop=1;jettySize=auto;html=1;exitX=0.5;exitY=0.5;exitDx=0;exitDy=0;exitPerimeter=0;entryX=1;entryY=0.5;entryDx=0;entryDy=0;" parent="1" source="AVF1j_iNjwQPH2Job04u-2" target="AVF1j_iNjwQPH2Job04u-17" edge="1">
          <mxGeometry relative="1" as="geometry" />
        </mxCell>
        <mxCell id="lFAUGsljtXtqzFOSI4cs-13" style="edgeStyle=orthogonalEdgeStyle;rounded=0;orthogonalLoop=1;jettySize=auto;html=1;exitX=0.5;exitY=0.5;exitDx=0;exitDy=0;exitPerimeter=0;entryX=1;entryY=0.5;entryDx=0;entryDy=0;" parent="1" source="AVF1j_iNjwQPH2Job04u-2" target="AVF1j_iNjwQPH2Job04u-14" edge="1">
          <mxGeometry relative="1" as="geometry" />
        </mxCell>
        <mxCell id="lFAUGsljtXtqzFOSI4cs-14" style="edgeStyle=orthogonalEdgeStyle;rounded=0;orthogonalLoop=1;jettySize=auto;html=1;exitX=0.5;exitY=0.5;exitDx=0;exitDy=0;exitPerimeter=0;entryX=0;entryY=0.5;entryDx=0;entryDy=0;" parent="1" source="AVF1j_iNjwQPH2Job04u-2" target="AVF1j_iNjwQPH2Job04u-15" edge="1">
          <mxGeometry relative="1" as="geometry" />
        </mxCell>
        <mxCell id="lFAUGsljtXtqzFOSI4cs-15" style="edgeStyle=orthogonalEdgeStyle;rounded=0;orthogonalLoop=1;jettySize=auto;html=1;exitX=0.5;exitY=0.5;exitDx=0;exitDy=0;exitPerimeter=0;entryX=0;entryY=0.5;entryDx=0;entryDy=0;" parent="1" source="AVF1j_iNjwQPH2Job04u-2" target="lFAUGsljtXtqzFOSI4cs-1" edge="1">
          <mxGeometry relative="1" as="geometry" />
        </mxCell>
        <mxCell id="lFAUGsljtXtqzFOSI4cs-16" style="edgeStyle=orthogonalEdgeStyle;rounded=0;orthogonalLoop=1;jettySize=auto;html=1;exitX=0.5;exitY=0.5;exitDx=0;exitDy=0;exitPerimeter=0;entryX=1;entryY=0.5;entryDx=0;entryDy=0;" parent="1" source="AVF1j_iNjwQPH2Job04u-2" target="AVF1j_iNjwQPH2Job04u-12" edge="1">
          <mxGeometry relative="1" as="geometry" />
        </mxCell>
        <mxCell id="lFAUGsljtXtqzFOSI4cs-17" style="edgeStyle=orthogonalEdgeStyle;rounded=0;orthogonalLoop=1;jettySize=auto;html=1;exitX=0.5;exitY=0.5;exitDx=0;exitDy=0;exitPerimeter=0;entryX=0;entryY=0.5;entryDx=0;entryDy=0;" parent="1" source="AVF1j_iNjwQPH2Job04u-2" target="lFAUGsljtXtqzFOSI4cs-2" edge="1">
          <mxGeometry relative="1" as="geometry" />
        </mxCell>
        <mxCell id="AVF1j_iNjwQPH2Job04u-2" value="User" style="shape=umlActor;verticalLabelPosition=bottom;verticalAlign=top;html=1;fillStyle=auto;" parent="1" vertex="1">
          <mxGeometry x="384" y="310" width="36" height="60" as="geometry" />
        </mxCell>
        <mxCell id="AVF1j_iNjwQPH2Job04u-9" value="Create&lt;div&gt;Projects&lt;/div&gt;" style="ellipse;whiteSpace=wrap;html=1;fillColor=#fff2cc;strokeColor=#d6b656;" parent="1" vertex="1">
          <mxGeometry x="510" y="470" width="90" height="40" as="geometry" />
        </mxCell>
        <mxCell id="AVF1j_iNjwQPH2Job04u-10" value="Edit&lt;div&gt;&lt;div&gt;Projects&lt;/div&gt;&lt;/div&gt;" style="ellipse;whiteSpace=wrap;html=1;fillColor=#dae8fc;strokeColor=#6c8ebf;" parent="1" vertex="1">
          <mxGeometry x="510" y="515" width="90" height="35" as="geometry" />
        </mxCell>
        <mxCell id="AVF1j_iNjwQPH2Job04u-11" value="Delete&lt;div&gt;Projects&lt;/div&gt;" style="ellipse;whiteSpace=wrap;html=1;fillColor=#f8cecc;strokeColor=#b85450;" parent="1" vertex="1">
          <mxGeometry x="510" y="560" width="90" height="30" as="geometry" />
        </mxCell>
        <mxCell id="AVF1j_iNjwQPH2Job04u-12" value="Added&lt;div&gt;Registers&lt;/div&gt;" style="ellipse;whiteSpace=wrap;html=1;fillColor=#fff2cc;strokeColor=#d6b656;" parent="1" vertex="1">
          <mxGeometry x="206" y="500" width="110" height="40" as="geometry" />
        </mxCell>
        <mxCell id="AVF1j_iNjwQPH2Job04u-13" value="Edited&amp;nbsp;&lt;div&gt;Registers&lt;/div&gt;" style="ellipse;whiteSpace=wrap;html=1;fillColor=#dae8fc;strokeColor=#6c8ebf;" parent="1" vertex="1">
          <mxGeometry x="206" y="550" width="110" height="40" as="geometry" />
        </mxCell>
        <mxCell id="AVF1j_iNjwQPH2Job04u-14" value="Deleted&lt;div&gt;Registers&lt;/div&gt;" style="ellipse;whiteSpace=wrap;html=1;fillColor=#f8cecc;strokeColor=#b85450;" parent="1" vertex="1">
          <mxGeometry x="206" y="650" width="110" height="40" as="geometry" />
        </mxCell>
        <mxCell id="AVF1j_iNjwQPH2Job04u-15" value="Invoices&lt;div&gt;Creations&lt;/div&gt;" style="ellipse;whiteSpace=wrap;html=1;fillColor=#e1d5e7;strokeColor=#9673a6;" parent="1" vertex="1">
          <mxGeometry x="510" y="600" width="110" height="40" as="geometry" />
        </mxCell>
        <mxCell id="AVF1j_iNjwQPH2Job04u-17" value="Assigning employees&amp;nbsp;&lt;div&gt;to projects&lt;/div&gt;" style="ellipse;whiteSpace=wrap;html=1;fillColor=#dae8fc;strokeColor=#6c8ebf;" parent="1" vertex="1">
          <mxGeometry x="170" y="600" width="146" height="40" as="geometry" />
        </mxCell>
        <mxCell id="lFAUGsljtXtqzFOSI4cs-1" value="Adding working time records" style="ellipse;whiteSpace=wrap;html=1;fillColor=#fff2cc;strokeColor=#d6b656;" parent="1" vertex="1">
          <mxGeometry x="510" y="650" width="136" height="40" as="geometry" />
        </mxCell>
        <mxCell id="lFAUGsljtXtqzFOSI4cs-2" value="View statistics" style="ellipse;whiteSpace=wrap;html=1;fillColor=#d5e8d4;strokeColor=#82b366;" parent="1" vertex="1">
          <mxGeometry x="510" y="420" width="90" height="40" as="geometry" />
        </mxCell>
      </root>
    </mxGraphModel>
  </diagram>
</mxfile>
